<?xml version="1.0"?>
<svg xmlns="http://www.w3.org/2000/svg" xmlns:xlink="http://www.w3.org/1999/xlink" version="1.1" viewBox="0 0 192 192" width="30px" height="30px"><g fill="none" fill-rule="nonzero" stroke="none" stroke-width="1" stroke-linecap="butt" stroke-linejoin="miter" stroke-miterlimit="10" stroke-dasharray="" stroke-dashoffset="0" font-family="none" font-weight="none" font-size="none" text-anchor="none" style="mix-blend-mode: normal"><path d="M0,192v-192h192v192z" fill="none"/><g fill="#cccccc"><path d="M83.2,19.2c-35.27042,0 -64,28.72958 -64,64c0,35.27042 28.72958,64 64,64c15.33765,0 29.42326,-5.44649 40.4625,-14.4875l38.2125,38.2125c1.60523,1.67194 3.98891,2.34544 6.23174,1.76076c2.24283,-0.58468 3.99434,-2.33619 4.57902,-4.57902c0.58468,-2.24283 -0.08882,-4.62651 -1.76076,-6.23174l-38.2125,-38.2125c9.04101,-11.03924 14.4875,-25.12485 14.4875,-40.4625c0,-35.27042 -28.72958,-64 -64,-64zM83.2,32c28.35279,0 51.2,22.84722 51.2,51.2c0,28.35279 -22.84721,51.2 -51.2,51.2c-28.35278,0 -51.2,-22.84721 -51.2,-51.2c0,-28.35278 22.84722,-51.2 51.2,-51.2z"/></g></g></svg>
